<?xml version="1.0" standalone="no"?><!DOCTYPE svg PUBLIC "-//W3C//DTD SVG 1.1//EN" "http://www.w3.org/Graphics/SVG/1.1/DTD/svg11.dtd"><svg t="1525960393600" class="icon" style="" viewBox="0 0 1024 1024" version="1.1" xmlns="http://www.w3.org/2000/svg" p-id="1251" xmlns:xlink="http://www.w3.org/1999/xlink" width="128" height="128"><defs><style type="text/css"></style></defs><path d="M511.968 0C375.2 0 246.64 53.264 149.936 149.984 53.232 246.672-0.016 375.264 0 512c0 136.768 53.248 265.328 149.952 362.048C246.64 970.752 375.2 1024 511.984 1024h0.064C794.352 1023.984 1024.016 794.288 1024 511.984c0-136.752-53.232-265.328-149.92-362.032C777.376 53.264 648.832 0 511.968 0zM512 992v16-16h-0.048c-128.192 0-248.736-49.936-339.376-140.576C81.92 760.752 32 640.224 32 512c-0.016-128.208 49.904-248.736 140.56-339.392C263.216 81.936 383.744 32 512.064 32c128.208 0 248.736 49.92 339.376 140.576 90.656 90.656 140.544 211.2 140.544 339.408C992 776.64 784 991.984 512 992z" fill="#019fde" p-id="1252"></path><path d="M512 368c-79.376 0-143.984 64.592-144 143.968C368 591.392 432.608 656 512.016 656 591.408 655.968 656 591.36 656 512c0-79.392-64.608-144-144-144z m0.016 256C450.256 624 400 573.744 400 511.968 400.016 450.24 450.256 400 512 400c61.76 0 112 50.24 112 112 0 61.728-50.24 111.984-111.984 112zM512 784v-32c-132.336 0-240-107.664-240-240h-32c0 149.984 122.016 272 272 272zM512 240v32c132.336 0 240 107.664 240 240h32c0-149.984-122.016-272-272-272z" fill="#019fde" p-id="1253"></path><path d="M160 512H128c0 211.728 176 384 384 384v-32c-192 0-352-157.904-352-352zM512 128v32c194.096 0 352 157.904 352 352h32C896 300.272 723.728 128 512 128z" fill="#019fde" p-id="1254"></path></svg>